PathFileType	4	(X/Y/Z)	Run_500 02
DataRate	CameraRate	NumFrames	NumMarkers	Units	OrigDataRate	OrigDataStartFrame	OrigNumFrames
100	100	4	42	mm	100	150	128
Frame#	Time	LASI			RASI			LPSI			RPSI			RTH1			RTH2			RTH3			LTH1			LTH2			LTH3			RTB1			RTB2			RTB3			LTB1			LTB2			LTB3			RCAL			RTOE			RMT5			LCAL			LTOE			LMT5			LACR			RACR			CLAV			C7			RUA1			RUA2			RUA3			RLEL			RMEL			LUA1			LUA2			LUA3			LLEL			LMEL			RFAsuperior			RFAradius			RFAulna			LFAsuperior			LFAradius			LFAulna			
		X1	Y1	Z1	X2	Y2	Z2	X3	Y3	Z3	X4	Y4	Z4	X5	Y5	Z5	X6	Y6	Z6	X7	Y7	Z7	X8	Y8	Z8	X9	Y9	Z9	X10	Y10	Z10	X11	Y11	Z11	X12	Y12	Z12	X13	Y13	Z13	X14	Y14	Z14	X15	Y15	Z15	X16	Y16	Z16	X17	Y17	Z17	X18	Y18	Z18	X19	Y19	Z19	X20	Y20	Z20	X21	Y21	Z21	X22	Y22	Z22	X23	Y23	Z23	X24	Y24	Z24	X25	Y25	Z25	X26	Y26	Z26	X27	Y27	Z27	X28	Y28	Z28	X29	Y29	Z29	X30	Y30	Z30	X31	Y31	Z31	X32	Y32	Z32	X33	Y33	Z33	X34	Y34	Z34	X35	Y35	Z35	X36	Y36	Z36	X37	Y37	Z37	X38	Y38	Z38	X39	Y39	Z39	X40	Y40	Z40	X41	Y41	Z41	X42	Y42	Z42	

148	1.6	850.174005	1001.385389	-471.238676	847.3638099999999	980.388751	-206.588028	680.711272	1017.521516	-394.819605	674.350085	1012.020349	-291.957926	742.930491	782.177736	-166.799527	808.90001	675.029839	-180.877763	739.514129	565.800891	-218.027437	818.539757	811.689034	-519.120736	933.459681	715.108833	-491.18033	926.481464	589.625648	-474.516117	657.843736	407.038695	-274.531756	592.7270590000001	438.17625	-214.593675	489.916965	420.447934	-280.839096	973.870569	361.847451	-391.410265	921.609638	286.956109	-461.486913	929.688451	211.744079	-392.138683	393.914879	532.055381	-305.479569	282.580908	334.629792	-285.332293	281.446631	402.25465	-210.758288	787.284705	97.800444	-397.00518	1015.391771	68.975842	-362.848489	968.26084	48.328454	-463.948418	856.571761	1428.721355	-549.385481	859.890744	1483.199169	-220.07347	903.249014	1397.258285	-349.280779	791.358959	1485.377667	-385.420867	798.75576	1432.657173	-124.308394	719.188068	1374.26507	-135.22105	745.827445	1333.237108	-70.68499199999999	692.60475	1252.700295	-15.767053	662.073216	1227.030193	-88.294704	788.989645	1361.310713	-629.026849	716.786499	1304.628225	-592.732362	696.540839	1249.184882	-651.525322	665.576475	1175.139454	-680.8018049999999	652.221686	1164.123195	-606.8548019999999	785.084039	1193.64611	-11.924739	909.829307	1110.164046	-57.999112	869.0119099999999	1061.361178	-24.340266	759.477358	1116.621249	-683.37314	891.819849	1037.519249	-615.5165459999999	856.006296	988.538864	-653.760809	
149	1.61	848.124734	997.96725	-473.661458	845.237012	973.727348	-208.08327	678.678268	1014.678741	-395.136949	674.650446	1012.686422	-292.0666	751.879083	775.861749	-167.403962	822.368696	673.118733	-180.450044	761.122064	560.259195	-218.12826	814.551954	809.681294	-520.057078	925.954786	706.876759	-492.141834	917.881661	584.151672	-475.091295	691.466139	404.071673	-274.954492	626.935369	431.040951	-214.260061	524.598568	414.147635	-281.411839	948.7865420000001	357.656103	-389.992535	891.132596	286.995564	-461.397874	891.203569	210.876359	-390.752405	424.013654	524.831871	-302.895345	321.549869	321.839084	-286.781815	319.328534	388.223277	-209.480195	738.765112	99.597387	-397.219412	966.84124	68.72126299999999	-363.892526	918.076336	49.581449	-464.534169	859.281526	1424.33638	-550.56664	857.60223	1480.99732	-219.541475	904.184682	1393.285654	-347.624986	792.843195	1481.949181	-387.005868	794.355769	1430.482775	-124.876811	714.591557	1372.193898	-139.886707	738.053828	1332.425559	-73.308784	682.139514	1251.920596	-20.335221	652.521471	1226.696381	-93.27981800000001	797.4054159999999	1350.186427	-631.780736	725.936372	1290.356959	-600.692876	712.757021	1233.041253	-658.474256	686.049387	1157.615999	-686.997325	669.093761	1146.893474	-613.055204	770.918199	1187.436065	-12.621751	892.457322	1096.015325	-52.797668	846.847479	1050.519334	-20.968206	782.085627	1103.78489	-685.537568	914.409174	1030.090542	-614.4262199999999	882.018228	979.808284	-654.2256630000001	
150	1.62	846.282049	995.499365	-475.91072	842.486627	969.067424	-207.4132	676.546149	1012.806606	-395.379149	674.194265	1012.064653	-291.474762	758.556906	772.5784630000001	-168.632345	837.0392849999999	673.5354129999999	-179.789447	784.886005	558.132065	-216.812979	809.819675	807.759189	-520.6000759999999	915.599871	699.452556	-492.80839	901.473789	576.996791	-474.862812	726.648775	402.441441	-275.566501	663.204613	424.856933	-214.457854	560.749825	406.577941	-281.697865	918.883252	353.023036	-388.715037	856.560155	285.007083	-460.476748	849.805278	207.651128	-389.622902	453.129016	514.386058	-300.158427	363.67239	304.709141	-288.717474	360.054864	368.523036	-209.312614	689.514103	101.212391	-397.549539	917.482589	67.435455	-364.895329	867.682635	49.282618	-464.93556	862.084118	1421.000432	-551.326644	855.259991	1479.455882	-219.160497	904.577231	1390.69318	-345.842209	794.230096	1479.673052	-388.001678	790.184167	1429.069261	-125.765906	710.457387	1371.252403	-144.354338	730.081054	1332.825013	-76.261647	671.72231	1252.709068	-25.04067	643.243283	1228.085777	-98.406245	805.788262	1341.207117	-632.530228	736.284049	1277.289285	-606.921052	730.47721	1219.066006	-663.510477	708.609051	1141.774464	-691.783965	686.998819	1131.175304	-617.794944	756.634309	1183.116151	-14.673136	873.495772	1083.591214	-48.96586	823.072351	1041.44603	-19.477118	806.52603	1092.798015	-685.977052	938.3103	1024.30665	-611.897296	909.235821	973.11555	-653.304138	
151	1.63	845.295424	993.612617	-477.088982	839.617526	967.336338	-205.244467	674.629066	1011.898804	-395.546348	672.023434	1008.417238	-290.191827	761.970133	771.275506	-171.651945	852.872947	676.60302	-178.886964	810.641792	559.258627	-215.403469	803.844712	805.761861	-520.7885209999999	901.747797	692.226222	-493.006945	877.33878	568.542455	-473.920363	762.861387	402.345564	-276.205818	700.515519	420.422271	-214.988637	598.288491	397.700845	-281.694179	884.99902	347.856837	-388.06821	818.352279	280.821524	-459.350625	806.262399	202.314489	-389.818681	480.769595	500.679732	-298.069379	409.220752	284.085866	-290.151545	403.093572	344.466977	-210.107158	639.598966	102.822009	-398.277054	867.4508939999999	66.194782	-365.839119	817.385656	48.796469	-465.011961	865.450751	1418.615064	-551.4195130000001	853.058034	1478.529729	-218.935691	904.530638	1389.405327	-344.347862	795.135298	1478.368958	-388.694679	785.891671	1428.727046	-126.965031	706.22623	1371.608916	-148.533853	721.830411	1334.440149	-79.5534	661.025713	1255.284271	-29.818396	634.053816	1231.640572	-103.702497	813.687245	1334.778706	-631.2117940000001	747.585762	1265.991937	-610.059985	748.525088	1208.071985	-666.351767	732.480994	1128.772213	-694.912985	705.752795	1117.617022	-621.155561	741.997037	1180.93928	-17.742049	853.230781	1073.60238	-46.900703	798.090074	1034.68197	-20.281287	832.029957	1084.690331	-684.665159	963.324062	1021.629104	-607.746847	937.522819	969.67219	-650.567155	
